<svg width="20" height="20" viewBox="0 0 20 20" fill="none" xmlns="http://www.w3.org/2000/svg">
<g clip-path="url(#clip0_101_322)">
<path d="M9.99992 11.6668V13.3334C8.67384 13.3334 7.40207 13.8602 6.46438 14.7979C5.5267 15.7356 4.99992 17.0074 4.99992 18.3334H3.33325C3.33325 16.5653 4.03563 14.8696 5.28587 13.6194C6.53612 12.3691 8.23181 11.6668 9.99992 11.6668ZM9.99992 10.8334C7.23742 10.8334 4.99992 8.59593 4.99992 5.83344C4.99992 3.07094 7.23742 0.833435 9.99992 0.833435C12.7624 0.833435 14.9999 3.07094 14.9999 5.83344C14.9999 8.59593 12.7624 10.8334 9.99992 10.8334ZM9.99992 9.16677C11.8416 9.16677 13.3333 7.6751 13.3333 5.83344C13.3333 3.99177 11.8416 2.5001 9.99992 2.5001C8.15825 2.5001 6.66659 3.99177 6.66659 5.83344C6.66659 7.6751 8.15825 9.16677 9.99992 9.16677ZM17.4999 14.1668H18.3333V18.3334H11.6666V14.1668H12.4999V13.3334C12.4999 12.6704 12.7633 12.0345 13.2322 11.5657C13.701 11.0968 14.3369 10.8334 14.9999 10.8334C15.663 10.8334 16.2988 11.0968 16.7677 11.5657C17.2365 12.0345 17.4999 12.6704 17.4999 13.3334V14.1668ZM15.8333 14.1668V13.3334C15.8333 13.1124 15.7455 12.9005 15.5892 12.7442C15.4329 12.5879 15.2209 12.5001 14.9999 12.5001C14.7789 12.5001 14.5669 12.5879 14.4107 12.7442C14.2544 12.9005 14.1666 13.1124 14.1666 13.3334V14.1668H15.8333Z" fill="#F3F4F6"/>
</g>
<defs>
<clipPath id="clip0_101_322">
<rect width="20" height="20" fill="white"/>
</clipPath>
</defs>
</svg>
