<svg width="25" height="25" viewBox="0 0 25 25" fill="none" xmlns="http://www.w3.org/2000/svg">
<g clip-path="url(#clip0_357_21)">
<path fill-rule="evenodd" clip-rule="evenodd" d="M5.66363 12.5C5.66363 11.7379 5.79021 11.0072 6.01613 10.3219L2.06172 7.30212C1.29103 8.86692 0.856812 10.6301 0.856812 12.5C0.856812 14.3683 1.29049 16.1304 2.06012 17.6941L6.01239 14.6685C5.78861 13.9864 5.66363 13.2584 5.66363 12.5Z" fill="#FBBC05"/>
<path fill-rule="evenodd" clip-rule="evenodd" d="M12.6068 5.56666C14.2625 5.56666 15.7579 6.15333 16.9329 7.11333L20.3511 3.7C18.2682 1.88666 15.5977 0.766663 12.6068 0.766663C7.96341 0.766663 3.97268 3.42213 2.06171 7.30213L6.01612 10.3219C6.92727 7.556 9.52456 5.56666 12.6068 5.56666Z" fill="#EB4335"/>
<path fill-rule="evenodd" clip-rule="evenodd" d="M12.6068 19.4333C9.52456 19.4333 6.92727 17.444 6.01612 14.6781L2.06171 17.6973C3.97268 21.5779 7.96341 24.2333 12.6068 24.2333C15.4727 24.2333 18.2089 23.2157 20.2625 21.3091L16.5089 18.4072C15.4498 19.0744 14.1161 19.4333 12.6068 19.4333Z" fill="#34A853"/>
<path fill-rule="evenodd" clip-rule="evenodd" d="M23.8227 12.5C23.8227 11.8067 23.7159 11.06 23.5557 10.3667H12.6068V14.9H18.9091C18.594 16.4456 17.7362 17.6339 16.5089 18.4072L20.2625 21.3091C22.4197 19.3069 23.8227 16.3245 23.8227 12.5Z" fill="#4285F4"/>
</g>
<defs>
<clipPath id="clip0_357_21">
<rect width="24" height="24" fill="white" transform="translate(0.5 0.5)"/>
</clipPath>
</defs>
</svg>
