<svg width="20" height="20" viewBox="0 0 20 20" fill="none" xmlns="http://www.w3.org/2000/svg">
<path d="M10.0001 8.46071C12.3328 8.46071 14.2305 6.56299 14.2305 4.23036C14.2306 1.89772 12.3328 0 10.0001 0C7.6675 0 5.76978 1.89772 5.76978 4.23036C5.76978 6.56306 7.6675 8.46071 10.0001 8.46071ZM10.0001 1.0101C11.7758 1.0101 13.2204 2.45471 13.2204 4.23036C13.2204 6.006 11.7758 7.45061 10.0001 7.45061C8.22449 7.45061 6.77988 6.006 6.77988 4.23036C6.77988 2.45471 8.22449 1.0101 10.0001 1.0101Z" fill="#F3F4F6"/>
<path d="M17.0656 18.1297L15.6783 12.375C15.5137 11.692 14.908 11.2149 14.2053 11.2149C13.3241 11.2149 6.58238 11.2149 5.79477 11.2149C5.09217 11.2149 4.48644 11.692 4.32176 12.375L2.93448 18.1297C2.70486 19.0824 3.42633 20 4.4075 20H15.5926C16.5726 20 17.2956 19.0838 17.0656 18.1297ZM4.4075 18.9899C4.08093 18.9899 3.83991 18.6845 3.91652 18.3665L5.30379 12.6116C5.35866 12.384 5.56055 12.225 5.79484 12.225H8.0942L7.45727 16.7306C7.4384 16.8639 7.47354 16.9992 7.55488 17.1064L8.98316 18.9899H4.4075ZM8.48697 16.6638L9.11443 12.2251H10.8857L11.5132 16.6638L10.0001 18.6591L8.48697 16.6638ZM15.5926 18.9899H11.017L12.4452 17.1065C12.5265 16.9992 12.5616 16.8639 12.5428 16.7307L11.9058 12.2251H14.2052C14.4394 12.2251 14.6414 12.3841 14.6963 12.6118L16.0835 18.3666C16.1601 18.6842 15.9196 18.9899 15.5926 18.9899Z" fill="#F3F4F6"/>
</svg>
