<svg width="32" height="33" viewBox="0 0 32 33" fill="none" xmlns="http://www.w3.org/2000/svg">
<path d="M26.6666 11.5003V24.5003C26.6666 28.5003 24.2799 29.8337 21.3333 29.8337H10.6666C7.71992 29.8337 5.33325 28.5003 5.33325 24.5003V11.5003C5.33325 7.16699 7.71992 6.16699 10.6666 6.16699C10.6666 6.99366 10.9999 7.74032 11.5465 8.28699C12.0932 8.83365 12.8399 9.16699 13.6666 9.16699H18.3333C19.9866 9.16699 21.3333 7.82033 21.3333 6.16699C24.2799 6.16699 26.6666 7.16699 26.6666 11.5003Z" stroke="#1E3A8A" stroke-width="2" stroke-linecap="round" stroke-linejoin="round"/>
<path d="M21.3334 6.16699C21.3334 7.82033 19.9867 9.16699 18.3334 9.16699H13.6667C12.8401 9.16699 12.0934 8.83365 11.5467 8.28699C11 7.74032 10.6667 6.99366 10.6667 6.16699C10.6667 4.51366 12.0134 3.16699 13.6667 3.16699H18.3334C19.1601 3.16699 19.9068 3.50033 20.4535 4.047C21.0001 4.59366 21.3334 5.34033 21.3334 6.16699Z" stroke="#1E3A8A" stroke-width="2" stroke-linecap="round" stroke-linejoin="round"/>
<path d="M10.6667 17.833H16.0001" stroke="#1E3A8A" stroke-width="1.5" stroke-linecap="round" stroke-linejoin="round"/>
<path d="M10.6667 23.167H21.3334" stroke="#1E3A8A" stroke-width="2" stroke-linecap="round" stroke-linejoin="round"/>
</svg>
