<svg width="20" height="20" viewBox="0 0 20 20" fill="none" xmlns="http://www.w3.org/2000/svg">
<path d="M17.1583 5.22504H2.84167C1.96261 5.22504 1.25 5.93765 1.25 6.8167V16.3584C1.25 17.2374 1.96261 17.95 2.84167 17.95H17.1583C18.0374 17.95 18.75 17.2374 18.75 16.3584V6.8167C18.75 5.93765 18.0374 5.22504 17.1583 5.22504Z" stroke="#F3F4F6" stroke-width="2" stroke-miterlimit="10" stroke-linecap="square"/>
<path d="M11.5918 10.8334H15.5668C15.988 10.8345 16.4051 10.7519 16.7941 10.5902C17.183 10.4285 17.5358 10.1911 17.8321 9.89173C18.1284 9.59236 18.3621 9.23705 18.5197 8.84647C18.6773 8.45589 18.7556 8.03785 18.7501 7.61671V6.78338C18.7501 6.36124 18.5824 5.95639 18.2839 5.6579C17.9854 5.3594 17.5806 5.19171 17.1584 5.19171H2.84177C2.62992 5.19167 2.42018 5.23391 2.22487 5.31598C2.02955 5.39804 1.85259 5.51827 1.70434 5.66962C1.5561 5.82097 1.43956 6.00039 1.36156 6.19737C1.28356 6.39434 1.24567 6.6049 1.2501 6.81671V7.65004C1.24901 8.06839 1.33059 8.48284 1.49018 8.86955C1.64977 9.25627 1.88421 9.60763 2.18003 9.90345C2.47585 10.1993 2.82721 10.4337 3.21393 10.5933C3.60065 10.7529 4.01509 10.8345 4.43344 10.8334H11.5918Z" stroke="#F3F4F6" stroke-width="2" stroke-miterlimit="10"/>
<path d="M10 10.0001V11.5917" stroke="#F3F4F6" stroke-width="2" stroke-miterlimit="10" stroke-linecap="square"/>
<path d="M13.1833 5.22505H6.81665L7.61665 2.05005H12.3833L13.1833 5.22505Z" stroke="#F3F4F6" stroke-width="2" stroke-miterlimit="10" stroke-linecap="square"/>
</svg>
