<svg width="24" height="24" viewBox="0 0 24 24" fill="none" xmlns="http://www.w3.org/2000/svg">
<g clip-path="url(#clip0_163_1043)">
<path fill-rule="evenodd" clip-rule="evenodd" d="M12 0C8.8174 0 5.76516 1.26428 3.51472 3.51472C1.26428 5.76516 0 8.8174 0 12C0 15.1826 1.26428 18.2348 3.51472 20.4853C5.76516 22.7357 8.8174 24 12 24C15.1826 24 18.2348 22.7357 20.4853 20.4853C22.7357 18.2348 24 15.1826 24 12C24 8.8174 22.7357 5.76516 20.4853 3.51472C18.2348 1.26428 15.1826 0 12 0ZM2.25 12C2.25 9.7125 3.0375 7.6095 4.356 5.9475L7.0365 8.628C6.35939 9.62201 5.99813 10.7973 6 12C6 13.251 6.3825 14.412 7.0365 15.372L4.356 18.0525C2.98915 16.3315 2.24667 14.1977 2.25 12ZM5.9475 19.644L8.628 16.9635C9.588 17.6175 10.749 18 12 18C13.251 18 14.412 17.6175 15.372 16.9635L18.0525 19.644C16.3315 21.0109 14.1977 21.7533 12 21.75C9.8023 21.7532 7.66852 21.0107 5.9475 19.644ZM19.644 18.054C21.0112 16.3326 21.7537 14.1982 21.75 12C21.7532 9.8023 21.0107 7.66852 19.644 5.9475L16.9635 8.628C17.6175 9.588 18 10.749 18 12C18 13.251 17.6175 14.412 16.9635 15.372L19.644 18.0525V18.054ZM18.054 4.356C16.3326 2.98883 14.1982 2.24633 12 2.25C9.80228 2.24667 7.66846 2.98915 5.9475 4.356L8.628 7.0365C9.62201 6.35939 10.7973 5.99813 12 6C13.251 6 14.412 6.3825 15.372 7.0365L18.0525 4.356H18.054ZM8.25 12C8.25 11.0054 8.64509 10.0516 9.34835 9.34835C10.0516 8.64509 11.0054 8.25 12 8.25C12.9946 8.25 13.9484 8.64509 14.6517 9.34835C15.3549 10.0516 15.75 11.0054 15.75 12C15.75 12.9946 15.3549 13.9484 14.6517 14.6517C13.9484 15.3549 12.9946 15.75 12 15.75C11.0054 15.75 10.0516 15.3549 9.34835 14.6517C8.64509 13.9484 8.25 12.9946 8.25 12Z" fill="#1E3A8A"/>
</g>
<defs>
<clipPath id="clip0_163_1043">
<rect width="24" height="24" fill="white"/>
</clipPath>
</defs>
</svg>
