<svg width="20" height="20" viewBox="0 0 20 20" fill="none" xmlns="http://www.w3.org/2000/svg">
<g clip-path="url(#clip0_101_300)">
<path d="M10 3.27466C10.183 3.27466 10.3606 3.30324 10.5312 3.3606L10.6992 3.42798H10.7002L19.3799 7.4231L18.7256 7.72485L18.4346 7.85962V12.343L18.8789 12.3928C18.9063 12.3961 18.9277 12.4213 18.9277 12.4485C18.9277 12.4725 18.9119 12.4934 18.8887 12.5002L18.4697 12.6233L18.5352 13.0549L18.9199 15.5969H17.9082L18.293 13.0549L18.3584 12.6233L17.9395 12.5002C17.9161 12.4934 17.9004 12.4725 17.9004 12.4485C17.9004 12.4211 17.9226 12.3959 17.9502 12.3928L18.3936 12.343V7.87817L17.6846 8.20435L10.7002 11.4192C10.4786 11.5212 10.2437 11.5725 10 11.5725C9.81718 11.5725 9.63957 11.5441 9.46875 11.4866L9.30078 11.4192H9.2998L0.619141 7.4231L9.2998 3.42798H9.30078C9.52201 3.32616 9.75608 3.27466 10 3.27466Z" stroke="#F3F4F6"/>
<path d="M15.0945 15.2485C15.0945 15.2207 15.0977 15.3228 14.8308 15.5287C14.5908 15.7139 14.219 15.9127 13.7322 16.0952C12.7624 16.4585 11.4229 16.725 9.99976 16.725C8.57678 16.725 7.23797 16.4585 6.26831 16.0952C5.78152 15.9127 5.40971 15.7139 5.16968 15.5287C4.90279 15.3228 4.90601 15.2207 4.90601 15.2485V12.058L8.52612 13.725C8.99144 13.9391 9.48825 14.0482 9.99976 14.0483C10.4477 14.0483 10.8846 13.9647 11.2986 13.8002L11.4744 13.725L15.0945 12.058V15.2485Z" stroke="#F3F4F6"/>
</g>
<defs>
<clipPath id="clip0_101_300">
<rect width="20" height="20" fill="white"/>
</clipPath>
</defs>
</svg>
